<svg width="408" height="446" viewBox="0 0 408 446" fill="none" xmlns="http://www.w3.org/2000/svg">
<g clip-path="url(#clip0_1042_856)">
<path d="M390.708 46.1122C391.928 46.1122 392.918 45.1231 392.918 43.9029C392.918 42.6828 391.928 41.6937 390.708 41.6937C389.488 41.6937 388.499 42.6828 388.499 43.9029C388.499 45.1231 389.488 46.1122 390.708 46.1122Z" fill="#EDF4F7"/>
<path d="M368.332 46.1122C369.552 46.1122 370.542 45.1231 370.542 43.9029C370.542 42.6828 369.552 41.6937 368.332 41.6937C367.112 41.6937 366.123 42.6828 366.123 43.9029C366.123 45.1231 367.112 46.1122 368.332 46.1122Z" fill="#EDF4F7"/>
<path d="M345.958 46.1122C347.178 46.1122 348.168 45.1231 348.168 43.9029C348.168 42.6828 347.178 41.6937 345.958 41.6937C344.738 41.6937 343.749 42.6828 343.749 43.9029C343.749 45.1231 344.738 46.1122 345.958 46.1122Z" fill="#EDF4F7"/>
<path d="M323.583 46.1122C324.803 46.1122 325.793 45.1231 325.793 43.9029C325.793 42.6828 324.803 41.6937 323.583 41.6937C322.363 41.6937 321.374 42.6828 321.374 43.9029C321.374 45.1231 322.363 46.1122 323.583 46.1122Z" fill="#EDF4F7"/>
<path d="M301.209 46.1122C302.429 46.1122 303.419 45.1231 303.419 43.9029C303.419 42.6828 302.429 41.6937 301.209 41.6937C299.989 41.6937 299 42.6828 299 43.9029C299 45.1231 299.989 46.1122 301.209 46.1122Z" fill="#EDF4F7"/>
<path d="M390.708 68.4882C391.928 68.4882 392.918 67.4991 392.918 66.2789C392.918 65.0588 391.928 64.0696 390.708 64.0696C389.488 64.0696 388.499 65.0588 388.499 66.2789C388.499 67.4991 389.488 68.4882 390.708 68.4882Z" fill="#EDF4F7"/>
<path d="M390.708 90.8627C391.928 90.8627 392.918 89.8736 392.918 88.6534C392.918 87.4333 391.928 86.4442 390.708 86.4442C389.488 86.4442 388.499 87.4333 388.499 88.6534C388.499 89.8736 389.488 90.8627 390.708 90.8627Z" fill="#EDF4F7"/>
<path d="M390.708 113.237C391.928 113.237 392.918 112.248 392.918 111.028C392.918 109.808 391.928 108.819 390.708 108.819C389.488 108.819 388.499 109.808 388.499 111.028C388.499 112.248 389.488 113.237 390.708 113.237Z" fill="#EDF4F7"/>
<path d="M390.708 135.612C391.928 135.612 392.918 134.622 392.918 133.402C392.918 132.182 391.928 131.193 390.708 131.193C389.488 131.193 388.499 132.182 388.499 133.402C388.499 134.622 389.488 135.612 390.708 135.612Z" fill="#EDF4F7"/>
<path d="M368.332 68.4882C369.552 68.4882 370.542 67.4991 370.542 66.2789C370.542 65.0588 369.552 64.0696 368.332 64.0696C367.112 64.0696 366.123 65.0588 366.123 66.2789C366.123 67.4991 367.112 68.4882 368.332 68.4882Z" fill="#EDF4F7"/>
<path d="M368.332 90.8627C369.552 90.8627 370.542 89.8736 370.542 88.6534C370.542 87.4333 369.552 86.4442 368.332 86.4442C367.112 86.4442 366.123 87.4333 366.123 88.6534C366.123 89.8736 367.112 90.8627 368.332 90.8627Z" fill="#EDF4F7"/>
<path d="M368.332 113.237C369.552 113.237 370.542 112.248 370.542 111.028C370.542 109.808 369.552 108.819 368.332 108.819C367.112 108.819 366.123 109.808 366.123 111.028C366.123 112.248 367.112 113.237 368.332 113.237Z" fill="#EDF4F7"/>
<path d="M368.332 135.612C369.552 135.612 370.542 134.622 370.542 133.402C370.542 132.182 369.552 131.193 368.332 131.193C367.112 131.193 366.123 132.182 366.123 133.402C366.123 134.622 367.112 135.612 368.332 135.612Z" fill="#EDF4F7"/>
<path d="M345.958 68.4882C347.178 68.4882 348.168 67.4991 348.168 66.2789C348.168 65.0588 347.178 64.0696 345.958 64.0696C344.738 64.0696 343.749 65.0588 343.749 66.2789C343.749 67.4991 344.738 68.4882 345.958 68.4882Z" fill="#EDF4F7"/>
<path d="M345.958 90.8627C347.178 90.8627 348.168 89.8736 348.168 88.6534C348.168 87.4333 347.178 86.4442 345.958 86.4442C344.738 86.4442 343.749 87.4333 343.749 88.6534C343.749 89.8736 344.738 90.8627 345.958 90.8627Z" fill="#EDF4F7"/>
<path d="M345.958 113.237C347.178 113.237 348.168 112.248 348.168 111.028C348.168 109.808 347.178 108.819 345.958 108.819C344.738 108.819 343.749 109.808 343.749 111.028C343.749 112.248 344.738 113.237 345.958 113.237Z" fill="#EDF4F7"/>
<path d="M345.958 135.612C347.178 135.612 348.168 134.622 348.168 133.402C348.168 132.182 347.178 131.193 345.958 131.193C344.738 131.193 343.749 132.182 343.749 133.402C343.749 134.622 344.738 135.612 345.958 135.612Z" fill="#EDF4F7"/>
<path d="M323.583 68.4882C324.803 68.4882 325.793 67.4991 325.793 66.2789C325.793 65.0588 324.803 64.0696 323.583 64.0696C322.363 64.0696 321.374 65.0588 321.374 66.2789C321.374 67.4991 322.363 68.4882 323.583 68.4882Z" fill="#EDF4F7"/>
<path d="M323.583 90.8627C324.803 90.8627 325.793 89.8736 325.793 88.6534C325.793 87.4333 324.803 86.4442 323.583 86.4442C322.363 86.4442 321.374 87.4333 321.374 88.6534C321.374 89.8736 322.363 90.8627 323.583 90.8627Z" fill="#EDF4F7"/>
<path d="M323.583 113.237C324.803 113.237 325.793 112.248 325.793 111.028C325.793 109.808 324.803 108.819 323.583 108.819C322.363 108.819 321.374 109.808 321.374 111.028C321.374 112.248 322.363 113.237 323.583 113.237Z" fill="#EDF4F7"/>
<path d="M323.583 135.612C324.803 135.612 325.793 134.622 325.793 133.402C325.793 132.182 324.803 131.193 323.583 131.193C322.363 131.193 321.374 132.182 321.374 133.402C321.374 134.622 322.363 135.612 323.583 135.612Z" fill="#EDF4F7"/>
<path d="M301.209 68.4882C302.429 68.4882 303.419 67.4991 303.419 66.2789C303.419 65.0588 302.429 64.0696 301.209 64.0696C299.989 64.0696 299 65.0588 299 66.2789C299 67.4991 299.989 68.4882 301.209 68.4882Z" fill="#EDF4F7"/>
<path d="M301.209 90.8627C302.429 90.8627 303.419 89.8736 303.419 88.6534C303.419 87.4333 302.429 86.4442 301.209 86.4442C299.989 86.4442 299 87.4333 299 88.6534C299 89.8736 299.989 90.8627 301.209 90.8627Z" fill="#EDF4F7"/>
<path d="M301.209 113.237C302.429 113.237 303.419 112.248 303.419 111.028C303.419 109.808 302.429 108.819 301.209 108.819C299.989 108.819 299 109.808 299 111.028C299 112.248 299.989 113.237 301.209 113.237Z" fill="#EDF4F7"/>
<path d="M301.209 135.612C302.429 135.612 303.419 134.622 303.419 133.402C303.419 132.182 302.429 131.193 301.209 131.193C299.989 131.193 299 132.182 299 133.402C299 134.622 299.989 135.612 301.209 135.612Z" fill="#EDF4F7"/>
<path d="M116.144 129.346C116.144 129.346 102.607 118.158 93.1832 116.498C83.7599 114.84 77.1899 115.385 75.7983 121.988C74.4051 128.593 80.6249 137.395 116.145 129.346H116.144Z" fill="#EDF4F7"/>
<path d="M132.819 149.87C132.819 149.87 117.663 141.077 108.159 141.037C98.6536 140.998 92.3181 142.659 92.0805 149.448C91.843 156.237 99.4286 163.911 132.819 149.868V149.87Z" fill="#EDF4F7"/>
<path d="M100.635 111.189C100.635 111.189 91.4291 99.3764 83.906 95.2014C76.3829 91.0265 68.3101 91.3417 67.4864 96.5946C66.6627 101.849 76.4133 112.137 100.633 111.187L100.635 111.189Z" fill="#EDF4F7"/>
<path d="M152.149 160.132C152.149 160.132 142.107 142.326 140.982 127.313C139.857 112.3 147.455 111.128 152.822 112.787C158.189 114.447 161.006 129.758 152.149 160.132Z" fill="#EDF4F7"/>
<path d="M121.524 102.883C121.935 99.518 123.002 95.7419 126.095 94.431C129.271 93.085 133.213 95.2075 135.031 98.271C136.849 101.334 137.031 105.024 136.943 108.518C136.826 113.118 135.011 138.56 128.254 135.375C124.166 133.447 122.949 124.645 122.214 120.891C121.049 114.936 120.798 108.835 121.525 102.883H121.524Z" fill="#EDF4F7"/>
<path d="M68.0579 78.8671C65.3797 76.3853 62.7867 73.605 61.5915 70.1853C60.3978 66.764 60.9566 62.5617 63.7642 60.4514C66.9586 58.0518 71.8812 59.2166 74.9888 61.9724C78.0949 64.7283 79.8184 68.6657 81.4415 72.4646C83.8792 78.1667 89.7076 87.083 89.7183 92.9602C82.7479 92.2872 73.014 83.6983 68.0579 78.8686V78.8671Z" fill="#EDF4F7"/>
<path d="M95.4506 92.7257C94.2432 89.309 93.2581 85.6761 93.8321 82.1666C94.4076 78.657 96.929 75.321 100.458 74.8612C104.473 74.3389 108.326 77.7054 109.784 81.5636C111.243 85.4219 110.893 89.6288 110.521 93.6682C109.962 99.7327 110.897 110.185 108.08 115.233C102.159 111.303 97.567 99.2531 95.4491 92.7257H95.4506Z" fill="#EDF4F7"/>
<path d="M164.884 174.343C164.678 174.359 164.462 174.301 164.283 174.164C121.895 141.799 79.992 81.7676 79.5749 81.1662C79.3023 80.7749 79.3921 80.2496 79.7713 79.9938C80.1519 79.738 80.6818 79.8446 80.9513 80.2359C81.3685 80.8358 123.116 140.64 165.277 172.834C165.656 173.123 165.74 173.654 165.466 174.021C165.323 174.213 165.111 174.323 164.886 174.343H164.884Z" fill="white"/>
<path d="M106.99 116.178C106.945 116.181 106.901 116.183 106.856 116.178C106.388 116.143 106.021 115.738 106.036 115.272C106.039 115.167 106.35 104.629 103.355 93.6743C103.23 93.219 103.495 92.7637 103.947 92.6572C104.389 92.5643 104.862 92.8323 104.989 93.289C108.052 104.503 107.733 115.289 107.73 115.396C107.716 115.816 107.395 116.143 106.99 116.178Z" fill="white"/>
<path d="M110.115 119.928C109.861 119.95 109.596 119.855 109.403 119.65C109.278 119.517 96.7271 106.263 80.1491 102.63C79.6893 102.53 79.3833 102.077 79.4655 101.621C79.5477 101.164 79.9847 100.875 80.4476 100.977C97.5752 104.728 110.092 117.96 110.618 118.52C110.944 118.869 110.934 119.402 110.598 119.715C110.461 119.842 110.29 119.913 110.114 119.928H110.115Z" fill="white"/>
<path d="M129.426 141.662H129.423C128.958 141.7 128.537 141.353 128.48 140.887C128.462 140.737 126.697 125.795 127.656 115.743C127.701 115.281 128.112 114.962 128.579 115.016C129.045 115.08 129.386 115.505 129.342 115.969C128.398 125.843 130.141 140.603 130.16 140.751C130.216 141.216 129.887 141.624 129.424 141.663L129.426 141.662Z" fill="white"/>
<path d="M120.868 132.334C120.697 132.35 120.519 132.31 120.356 132.214C120.253 132.153 109.712 126.043 94.3382 126.27C93.8708 126.276 93.4734 125.901 93.4475 125.435C93.4232 124.968 93.7612 124.572 94.2484 124.577C110.134 124.344 120.731 130.504 121.175 130.766C121.585 131.008 121.733 131.527 121.507 131.928C121.372 132.168 121.13 132.312 120.869 132.333L120.868 132.334Z" fill="white"/>
<path d="M153.019 164.598C152.582 164.635 152.173 164.327 152.086 163.887C151.928 163.082 148.197 144.029 148.345 133.676C148.351 133.208 148.747 132.861 149.204 132.876C149.671 132.902 150.044 133.3 150.037 133.769C149.891 143.941 153.708 163.427 153.747 163.622C153.837 164.083 153.54 164.517 153.082 164.59C153.061 164.593 153.041 164.595 153.019 164.598Z" fill="white"/>
<path d="M141.826 154.255C141.616 154.273 141.398 154.212 141.217 154.072C141.136 154.01 132.952 147.804 115.686 149.269C115.222 149.308 114.8 148.963 114.742 148.497C114.684 148.031 115.013 147.621 115.477 147.582C133.487 146.053 141.881 152.483 142.229 152.755C142.602 153.051 142.68 153.581 142.4 153.944C142.257 154.132 142.047 154.235 141.826 154.255Z" fill="white"/>
<path d="M367.137 241.936C370.29 241.201 373.527 240.635 376.434 239.208C379.34 237.781 381.938 235.302 382.579 232.128C383.396 228.069 380.939 223.612 382.672 219.853C384.069 216.818 387.684 215.506 391.005 215.136C394.324 214.766 397.788 215.012 400.892 213.782C407.794 211.048 410.025 201.33 406.272 194.925C402.519 188.521 394.493 185.532 387.087 186.05C379.681 186.567 372.802 190.025 366.541 194.013C348.662 205.402 334.179 221.89 324.742 240.839C322.366 245.61 320.306 250.539 318.593 255.586C317.666 258.318 315.833 274.741 315.833 274.741C315.833 274.741 332.738 259.072 335.808 256.744C345.076 249.715 355.801 244.583 367.137 241.936Z" fill="#7BA5BB"/>
<path d="M315.617 275.333C315.917 275.444 316.259 275.31 316.402 275.015C316.631 274.54 339.745 227.262 385.402 202.028C385.706 201.859 385.817 201.477 385.648 201.171C385.479 200.866 385.097 200.753 384.791 200.924C338.772 226.359 315.493 273.99 315.263 274.466C315.113 274.782 315.245 275.158 315.559 275.308C315.579 275.318 315.595 275.325 315.615 275.333H315.617Z" fill="white"/>
<path d="M362.885 271.359C365.244 272.087 367.592 272.959 370.054 273.137C372.516 273.315 375.179 272.682 376.82 270.84C378.918 268.483 379.014 264.605 381.601 262.796C383.687 261.337 386.572 261.861 388.899 262.895C391.227 263.927 393.41 265.421 395.927 265.804C401.521 266.657 406.725 261.119 406.718 255.462C406.71 249.804 402.576 244.752 397.503 242.245C392.43 239.739 386.572 239.371 380.919 239.589C364.772 240.21 348.9 245.495 335.406 254.339C332.007 256.567 328.758 259.018 325.69 261.683C324.03 263.125 316.509 273.229 316.509 273.229C316.509 273.229 333.659 269.415 336.575 269.063C345.377 268 354.409 268.745 362.888 271.362L362.885 271.359Z" fill="#EDF4F7"/>
<path d="M316.289 273.818C316.474 273.885 316.687 273.867 316.86 273.749C317.192 273.526 350.546 251.322 390.246 252.266C390.593 252.273 390.883 251.998 390.892 251.649C390.901 251.302 390.624 251.013 390.275 251.005C350.161 250.052 316.489 272.478 316.152 272.705C315.863 272.9 315.789 273.291 315.983 273.582C316.06 273.696 316.168 273.775 316.288 273.821L316.289 273.818Z" fill="white"/>
<path d="M301.185 0H158.529C139.629 0 124.309 15.3209 124.309 34.2202V402.605C124.309 421.504 139.629 436.825 158.529 436.825H301.185C320.084 436.825 335.405 421.504 335.405 402.605V34.2202C335.405 15.3209 320.084 0 301.185 0Z" fill="#003D71"/>
<path d="M299.481 8.5387H160.233C145.599 8.5387 133.735 20.4021 133.735 35.0363V401.79C133.735 416.424 145.599 428.288 160.233 428.288H299.481C314.116 428.288 325.979 416.424 325.979 401.79V35.0363C325.979 20.4021 314.116 8.5387 299.481 8.5387Z" fill="#7BA5BB"/>
<path d="M306.348 27.4661H290.243C288.751 27.4661 287.536 26.2525 287.536 24.7589V21.126C287.536 19.6338 288.75 18.4188 290.243 18.4188H306.348C307.569 18.4188 308.626 19.2319 308.95 20.3875C309.7 20.4393 310.296 21.0666 310.296 21.8294V24.0539C310.296 24.8167 309.7 25.4441 308.95 25.4973C308.624 26.653 307.569 27.4661 306.348 27.4661ZM290.243 19.0537C289.101 19.0537 288.171 19.9825 288.171 21.126V24.7589C288.171 25.9008 289.1 26.8311 290.243 26.8311H306.348C307.351 26.8311 308.207 26.114 308.385 25.1274C308.412 24.9766 308.543 24.8655 308.697 24.8655H308.849C309.297 24.8655 309.661 24.5016 309.661 24.0539V21.8294C309.661 21.3818 309.297 21.0179 308.849 21.0179H308.697C308.543 21.0179 308.412 20.9083 308.385 20.756C308.208 19.7694 307.351 19.0522 306.348 19.0522H290.243V19.0537Z" fill="#EDF4F7"/>
<path d="M290.245 19.5486H303.663V26.3363H290.245C289.415 26.3363 288.74 25.6618 288.74 24.832V21.0544C288.74 20.2246 289.415 19.5501 290.245 19.5501V19.5486Z" fill="#EDF4F7"/>
<path d="M154.374 22.9424H150.711V27.4751H154.374V22.9424Z" fill="#EDF4F7"/>
<path d="M158.987 20.6174H155.323V27.4751H158.987V20.6174Z" fill="#EDF4F7"/>
<path d="M163.599 18.4097H159.936V27.4752H163.599V18.4097Z" fill="#EDF4F7"/>
<path d="M283.512 21.234C283.516 21.5279 283.4 21.8095 283.193 22.0166C282.756 22.4505 282.054 22.4566 281.608 22.0334C280.527 21.001 279.086 20.4301 277.593 20.4407C276.097 20.4316 274.659 21.0026 273.578 22.0334C273.131 22.4582 272.428 22.4505 271.993 22.0166C271.566 21.5933 271.565 20.9051 271.99 20.4788C271.997 20.4712 272.003 20.4651 272.011 20.4575C273.514 19.0217 275.516 18.2269 277.594 18.2391C279.673 18.2254 281.675 19.0217 283.178 20.4575C283.391 20.66 283.512 20.9401 283.516 21.234H283.512Z" fill="#EDF4F7"/>
<path d="M280.66 22.988C281.094 23.4006 281.112 24.0889 280.698 24.5228C280.691 24.5304 280.683 24.538 280.675 24.5456C280.24 24.9811 279.536 24.9872 279.092 24.5624C278.248 23.7691 276.933 23.7691 276.088 24.5624C275.643 24.9887 274.94 24.9811 274.504 24.5456C274.078 24.1224 274.075 23.4341 274.498 23.0078C274.506 23.0002 274.513 22.9926 274.521 22.9865C276.245 21.3604 278.937 21.3604 280.66 22.9865V22.988Z" fill="#EDF4F7"/>
<path d="M278.917 26.4641C278.917 27.1965 278.322 27.7888 277.591 27.7888C276.859 27.7888 276.267 27.1934 276.267 26.4626C276.267 25.7317 276.86 25.1379 277.593 25.1379C278.325 25.1379 278.919 25.7333 278.919 26.4641H278.917Z" fill="#EDF4F7"/>
<path d="M169.582 26.7062H172.854V27.4508H168.667V20.5458H169.582V26.7062Z" fill="#EDF4F7"/>
<path d="M173.522 24.838C173.522 24.3356 173.621 23.8834 173.819 23.4814C174.017 23.0794 174.291 22.7704 174.645 22.5511C174.998 22.3334 175.4 22.2238 175.852 22.2238C176.551 22.2238 177.116 22.4658 177.548 22.95C177.979 23.4342 178.195 24.0767 178.195 24.8807V24.9416C178.195 25.441 178.099 25.8901 177.909 26.2875C177.717 26.6849 177.445 26.9925 177.088 27.2133C176.732 27.4341 176.324 27.5452 175.863 27.5452C175.167 27.5452 174.603 27.3031 174.173 26.8189C173.742 26.3347 173.525 25.6953 173.525 24.8974V24.8365L173.522 24.838ZM174.404 24.9431C174.404 25.5125 174.536 25.9693 174.8 26.3134C175.063 26.6575 175.417 26.8311 175.86 26.8311C176.303 26.8311 176.659 26.6575 176.922 26.3073C177.184 25.9587 177.317 25.4684 177.317 24.838C177.317 24.2747 177.183 23.8194 176.916 23.4708C176.65 23.1221 176.294 22.9455 175.852 22.9455C175.41 22.9455 175.069 23.1175 174.804 23.4631C174.54 23.8072 174.406 24.3006 174.406 24.9431H174.404Z" fill="#EDF4F7"/>
<path d="M181.775 23.1069C181.642 23.084 181.498 23.0734 181.344 23.0734C180.768 23.0734 180.378 23.3185 180.173 23.8088V27.4508H179.296V22.3197H180.15L180.164 22.912C180.452 22.4537 180.86 22.2238 181.388 22.2238C181.558 22.2238 181.688 22.2466 181.776 22.2907V23.1069H181.775Z" fill="#EDF4F7"/>
<path d="M184.62 27.5452C183.924 27.5452 183.358 27.3168 182.922 26.8585C182.485 26.4033 182.268 25.7912 182.268 25.0268V24.8654C182.268 24.3569 182.365 23.9032 182.56 23.5012C182.755 23.1023 183.026 22.7902 183.376 22.5618C183.725 22.3379 184.104 22.2238 184.512 22.2238C185.179 22.2238 185.698 22.443 186.068 22.883C186.438 23.3231 186.622 23.9519 186.622 24.771V25.1365H183.146C183.158 25.642 183.306 26.0515 183.589 26.3637C183.872 26.6758 184.232 26.8296 184.669 26.8296C184.979 26.8296 185.241 26.7656 185.456 26.6393C185.671 26.5129 185.859 26.3454 186.021 26.1368L186.557 26.554C186.127 27.2148 185.482 27.5452 184.622 27.5452H184.62ZM184.51 22.9455C184.156 22.9455 183.859 23.0749 183.618 23.3307C183.378 23.5895 183.23 23.9504 183.172 24.4148H185.742V24.3478C185.716 23.9016 185.596 23.5575 185.381 23.3109C185.167 23.0673 184.876 22.9439 184.509 22.9439L184.51 22.9455Z" fill="#EDF4F7"/>
<path d="M188.462 22.3196L188.486 22.8891C188.862 22.446 189.369 22.2252 190.009 22.2252C190.726 22.2252 191.214 22.5008 191.473 23.0505C191.644 22.8038 191.866 22.6043 192.14 22.4536C192.414 22.3013 192.737 22.2252 193.11 22.2252C194.235 22.2252 194.808 22.8206 194.826 24.0127V27.4507H193.951V24.0645C193.951 23.6976 193.865 23.4235 193.698 23.2423C193.53 23.0611 193.25 22.9682 192.854 22.9682C192.528 22.9682 192.259 23.0642 192.043 23.2606C191.828 23.454 191.703 23.7158 191.668 24.0447V27.4492H190.787V24.0873C190.787 23.3413 190.421 22.9682 189.69 22.9682C189.115 22.9682 188.722 23.2134 188.509 23.7037V27.4507H187.632V22.3196H188.462Z" fill="#EDF4F7"/>
<path d="M229.277 81.4052C226.401 81.4052 224.061 83.7454 224.061 86.6216C224.061 89.4978 226.401 91.838 229.277 91.838C232.153 91.838 234.493 89.4978 234.493 86.6216C234.493 83.7454 232.153 81.4052 229.277 81.4052Z" fill="white"/>
<path opacity="0.7" d="M260.488 111.449C257.612 111.449 255.271 113.789 255.271 116.665C255.271 119.542 257.612 121.882 260.488 121.882C263.364 121.882 265.704 119.542 265.704 116.665C265.704 113.789 263.364 111.449 260.488 111.449Z" fill="white"/>
<path opacity="0.4" d="M230.443 142.662C227.567 142.662 225.227 145.002 225.227 147.878C225.227 150.755 227.567 153.095 230.443 153.095C233.319 153.095 235.659 150.755 235.659 147.878C235.659 145.002 233.319 142.662 230.443 142.662Z" fill="white"/>
<path opacity="0.1" d="M199.231 112.617C196.355 112.617 194.015 114.957 194.015 117.833C194.015 120.709 196.355 123.05 199.231 123.05C202.107 123.05 204.447 120.709 204.447 117.833C204.447 114.957 202.107 112.617 199.231 112.617Z" fill="white"/>
<path opacity="0.9" d="M248.096 86.3856C245.644 84.8828 242.426 85.6548 240.923 88.1077C239.42 90.559 240.192 93.7778 242.645 95.2806C243.493 95.8013 244.432 96.048 245.363 96.048C247.118 96.048 248.836 95.1618 249.819 93.5585C251.322 91.1072 250.55 87.8884 248.097 86.3841L248.096 86.3856Z" fill="white"/>
<path opacity="0.6" d="M261.348 131.543C261.024 130.187 260.189 129.041 259.002 128.312C257.814 127.584 256.413 127.361 255.058 127.686C253.703 128.01 252.556 128.845 251.827 130.032C250.324 132.483 251.096 135.702 253.548 137.205C254.396 137.726 255.335 137.972 256.265 137.972C258.021 137.972 259.739 137.086 260.722 135.483C261.45 134.295 261.672 132.895 261.348 131.539V131.543Z" fill="white"/>
<path opacity="0.3" d="M217.074 139.219C214.623 137.718 211.404 138.489 209.901 140.94C209.173 142.128 208.951 143.528 209.275 144.884C209.6 146.239 210.434 147.385 211.622 148.114C212.453 148.625 213.388 148.886 214.339 148.886C214.747 148.886 215.159 148.838 215.565 148.74C216.92 148.416 218.068 147.582 218.796 146.394C220.299 143.941 219.527 140.724 217.074 139.221V139.219Z" fill="white"/>
<path opacity="0.05" d="M208.514 100.521C208.19 99.1662 207.356 98.0197 206.168 97.2904C204.98 96.5626 203.58 96.3418 202.226 96.6646C200.871 96.9889 199.724 97.8233 198.995 99.0109C198.266 100.199 198.045 101.599 198.369 102.954C198.694 104.309 199.528 105.456 200.716 106.185C201.547 106.695 202.482 106.957 203.432 106.957C203.84 106.957 204.251 106.909 204.659 106.811C206.014 106.487 207.161 105.652 207.89 104.465C208.618 103.277 208.84 101.876 208.516 100.521H208.514Z" fill="white"/>
<path opacity="0.8" d="M260.768 99.0871C260.081 97.8751 258.964 97.0011 257.622 96.6296C256.281 96.2581 254.872 96.4317 253.659 97.1168C252.447 97.8035 251.573 98.9211 251.201 100.264C250.83 101.607 251.002 103.014 251.689 104.227C252.648 105.92 254.417 106.874 256.238 106.874C257.108 106.874 257.989 106.656 258.799 106.199C261.302 104.783 262.187 101.593 260.769 99.0901L260.768 99.0871Z" fill="white"/>
<path opacity="0.5" d="M249.993 141.05C248.575 138.546 245.385 137.662 242.884 139.079C240.38 140.497 239.496 143.685 240.913 146.188C241.873 147.881 243.642 148.835 245.463 148.835C246.332 148.835 247.214 148.617 248.024 148.159C250.527 146.741 251.412 143.553 249.994 141.05H249.993Z" fill="white"/>
<path opacity="0.2" d="M208.031 130.273C207.344 129.061 206.226 128.187 204.883 127.815C203.542 127.444 202.134 127.616 200.922 128.302C198.419 129.72 197.534 132.908 198.951 135.411C199.911 137.105 201.68 138.058 203.499 138.058C204.369 138.058 205.25 137.84 206.06 137.383C207.272 136.697 208.146 135.579 208.518 134.236C208.889 132.893 208.717 131.486 208.031 130.273Z" fill="white"/>
<path opacity="0.02" d="M218.805 88.3117C217.388 85.8085 214.198 84.9254 211.696 86.3414C209.193 87.759 208.308 90.9473 209.726 93.4504C210.413 94.6624 211.53 95.5363 212.873 95.9079C213.336 96.0358 213.806 96.0997 214.274 96.0997C215.163 96.0997 216.042 95.8698 216.835 95.4206C219.338 94.0046 220.223 90.8148 218.805 88.3117Z" fill="white"/>
<path d="M193.996 183.134V191.569C193.996 192.97 193.558 194.078 192.681 194.895C191.804 195.709 190.607 196.117 189.088 196.117C187.568 196.117 186.405 195.721 185.525 194.93C184.645 194.138 184.197 193.051 184.179 191.667V183.134H186.817V191.587C186.817 192.426 187.018 193.037 187.42 193.422C187.822 193.806 188.378 193.998 189.088 193.998C190.572 193.998 191.324 193.218 191.349 191.657V183.134H193.996Z" fill="white"/>
<path d="M198.798 191.429V195.942H196.159V183.136H201.155C202.117 183.136 202.962 183.312 203.693 183.664C204.422 184.016 204.984 184.515 205.377 185.164C205.77 185.812 205.966 186.549 205.966 187.376C205.966 188.631 205.537 189.62 204.678 190.345C203.819 191.07 202.63 191.431 201.111 191.431H198.798V191.429ZM198.798 189.291H201.155C201.852 189.291 202.385 189.127 202.752 188.798C203.119 188.469 203.302 188 203.302 187.391C203.302 186.782 203.117 186.257 202.747 185.87C202.377 185.483 201.867 185.284 201.217 185.272H198.798V189.291Z" fill="white"/>
<path d="M207.778 195.942V183.136H211.719C212.845 183.136 213.852 183.39 214.74 183.897C215.629 184.404 216.322 185.126 216.819 186.06C217.317 186.995 217.567 188.06 217.567 189.249V189.838C217.567 191.029 217.322 192.087 216.833 193.013C216.343 193.94 215.653 194.659 214.762 195.167C213.87 195.677 212.865 195.936 211.745 195.941H207.778V195.942ZM210.417 185.272V193.823H211.693C212.725 193.823 213.514 193.485 214.059 192.812C214.604 192.137 214.883 191.172 214.895 189.917V189.24C214.895 187.938 214.625 186.951 214.086 186.28C213.546 185.608 212.759 185.273 211.72 185.273H210.418L210.417 185.272Z" fill="white"/>
<path d="M226.717 193.303H222.09L221.209 195.942H218.403L223.171 183.136H225.616L230.41 195.942H227.604L226.715 193.303H226.717ZM222.802 191.166H226.004L224.395 186.371L222.802 191.166Z" fill="white"/>
<path d="M240.194 185.272H236.272V195.942H233.633V185.272H229.763V183.134H240.195V185.272H240.194Z" fill="white"/>
<path d="M244.504 195.942H241.865V183.136H244.504V195.942Z" fill="white"/>
<path d="M257.362 195.942H254.723L249.586 187.516V195.942H246.947V183.136H249.586L254.732 191.58V183.136H257.362V195.942Z" fill="white"/>
<path d="M269.8 194.324C269.325 194.893 268.654 195.333 267.786 195.647C266.918 195.96 265.956 196.117 264.9 196.117C263.792 196.117 262.821 195.875 261.985 195.391C261.149 194.907 260.505 194.205 260.049 193.284C259.596 192.362 259.361 191.281 259.351 190.037V189.167C259.351 187.888 259.565 186.782 259.998 185.846C260.429 184.911 261.05 184.195 261.863 183.699C262.674 183.204 263.626 182.956 264.718 182.956C266.236 182.956 267.423 183.318 268.281 184.041C269.136 184.766 269.643 185.82 269.802 187.204H267.233C267.116 186.472 266.857 185.934 266.455 185.595C266.053 185.255 265.5 185.084 264.797 185.084C263.9 185.084 263.216 185.422 262.747 186.095C262.279 186.77 262.041 187.773 262.035 189.104V189.922C262.035 191.265 262.291 192.279 262.801 192.965C263.311 193.652 264.058 193.995 265.044 193.995C266.029 193.995 266.741 193.783 267.163 193.361V191.153H264.762V189.209H269.802V194.319L269.8 194.324Z" fill="white"/>
<path d="M271.902 194.692C271.902 194.287 272.039 193.958 272.312 193.707C272.584 193.456 272.926 193.329 273.337 193.329C273.748 193.329 274.098 193.456 274.37 193.707C274.643 193.958 274.78 194.287 274.78 194.692C274.78 195.097 274.645 195.415 274.375 195.663C274.106 195.913 273.76 196.036 273.337 196.036C272.913 196.036 272.577 195.912 272.307 195.663C272.038 195.415 271.902 195.089 271.902 194.692Z" fill="white"/>
<path d="M277.137 194.692C277.137 194.287 277.274 193.958 277.546 193.707C277.819 193.456 278.16 193.329 278.571 193.329C278.982 193.329 279.332 193.456 279.605 193.707C279.877 193.958 280.014 194.287 280.014 194.692C280.014 195.097 279.879 195.415 279.609 195.663C279.34 195.913 278.994 196.036 278.571 196.036C278.148 196.036 277.811 195.912 277.542 195.663C277.272 195.414 277.137 195.089 277.137 194.692Z" fill="white"/>
<path d="M282.371 194.692C282.371 194.287 282.508 193.958 282.781 193.707C283.053 193.456 283.394 193.329 283.805 193.329C284.216 193.329 284.567 193.456 284.839 193.707C285.112 193.958 285.249 194.287 285.249 194.692C285.249 195.097 285.113 195.415 284.844 195.663C284.574 195.913 284.229 196.036 283.805 196.036C283.382 196.036 283.046 195.912 282.776 195.663C282.507 195.414 282.371 195.089 282.371 194.692Z" fill="white"/>
<path d="M10 384C10 378.477 14.4772 374 20 374H167C172.523 374 177 378.477 177 384V437H10V384Z" fill="#003D71"/>
<path fill-rule="evenodd" clip-rule="evenodd" d="M58.9845 314.367H37.3399C34.6403 314.367 27.9856 319.486 26.817 326.155C24.6148 336.886 25.5952 360.496 33.1964 368.918L41.8117 368.802L68.2035 362.259V317.704C65.7068 315.628 62.4856 314.367 58.9845 314.367Z" fill="#F77F00"/>
<path fill-rule="evenodd" clip-rule="evenodd" d="M37.3394 314.44C26.6523 315.488 25.6575 328.918 25.7976 337.301H37.3346V314.44H37.3394Z" fill="#F77F00"/>
<path fill-rule="evenodd" clip-rule="evenodd" d="M36.2918 337.383L25.7979 337.301C25.7979 337.301 25.793 341.285 30.1152 344.545C34.4373 347.8 48.36 358.275 48.36 358.275H63.6397C63.6397 358.275 60.3896 354.112 56.1109 353.759C51.8274 353.412 51.6632 354.001 51.6632 354.001C50.8374 351.823 40.9858 342 36.2918 337.379" fill="#96513C"/>
<path d="M22.7793 423.295L21.7314 430.824L19.0415 433.311C19.0415 433.311 16.9456 433.21 16.6993 433.944C16.453 434.673 16.6993 436.228 16.6993 436.228H30.4674C31.2208 432.949 31.8293 429.501 32.0562 423.725L22.7793 423.295Z" fill="#F77F00"/>
<path fill-rule="evenodd" clip-rule="evenodd" d="M85.4583 358.275H39.7255C39.2088 358.275 38.7017 358.328 38.2092 358.419C25.4407 358.352 23.8567 366.62 22.9585 375.626L17.8057 427.381H35.1378L40.8556 374.704H85.4632C89.9833 374.704 93.6777 371.009 93.6777 366.489C93.6777 361.969 89.9833 358.275 85.4632 358.275" fill="#EDF4F7"/>
<path d="M72.9651 405.591L66.6871 419.649C66.6871 419.649 67.1024 422.194 68.1552 423.643C69.208 425.097 69.3094 426.154 68.6478 427.028C67.991 427.902 67.8123 428.12 67.8123 428.12L57.1445 416.984L62.7416 403.911L72.9699 405.591H72.9651Z" fill="#F77F00"/>
<path fill-rule="evenodd" clip-rule="evenodd" d="M81.0777 360.675C79.3634 361.462 77.7456 362.906 76.5383 364.736C72.7811 370.444 55.6953 408.943 55.6953 408.943H75.3358L89.64 377.572C90.234 376.268 93.1846 370.826 93.4551 368.348C94.334 360.375 87.7131 357.627 81.0777 360.675Z" fill="#EDF4F7"/>
<path fill-rule="evenodd" clip-rule="evenodd" d="M61.2735 303.55C63.5336 307.587 59.6509 313.223 54.8699 312.812V314.092L57.4825 317.811L54.9134 321.63L52.238 322.606L45.7813 320.94V309.306C45.5447 309.234 45.535 309.654 45.0569 309.364C44.5788 309.07 43.5116 306.906 43.7048 305.791C43.8979 304.675 45.3274 304.038 45.3274 304.038C43.9849 300.734 42.9224 300.208 46.3801 298.373C49.8427 296.538 56.8209 296.673 56.8209 296.673L59.9889 297.735C60.1241 300.812 59.6992 300.749 61.2687 303.55" fill="#96513C"/>
<path fill-rule="evenodd" clip-rule="evenodd" d="M55.5705 312.832C55.3387 312.841 55.1069 312.832 54.8703 312.817C52.7937 312.778 51.0069 312.363 49.0752 311.624C49.0752 311.624 49.7754 313.875 52.2432 315.014C54.5564 316.082 56.1066 316.12 56.2949 316.12L54.8751 314.097V312.817L55.5705 312.832Z" fill="#712F2A"/>
<path fill-rule="evenodd" clip-rule="evenodd" d="M64.3346 289.859C65.1846 294.176 63.4509 298.035 59.2011 298.745C56.5306 299.189 54.3719 298.807 52.7396 299.005C51.7738 299.121 51.0059 299.628 50.3878 300.126C48.8569 301.362 47.6689 304.419 47.3261 306.447C47.3261 306.447 45.5344 305.699 44.9501 306.071C44.3658 306.442 44.7328 307.336 44.8197 307.708C44.9066 308.08 45.7324 308.476 45.998 308.707C46.79 309.393 44.7376 310.658 42.5258 308.876C40.966 307.621 37.0398 303.883 37.3199 298.363C37.6048 292.843 39.7973 291.568 40.6472 291.071C41.1978 290.748 45.5972 289.405 48.9197 288.275C52.9618 286.899 53.295 285.827 55.8835 284.639C59.2108 283.117 63.6585 286.449 64.3298 289.869" fill="#231F20"/>
<path fill-rule="evenodd" clip-rule="evenodd" d="M67.9761 317.521C73.8581 322.765 77.2723 330.009 79.3634 337.606C75.5097 337.35 71.4821 337.369 67.667 337.248L67.9809 317.521H67.9761Z" fill="#F77F00"/>
<path fill-rule="evenodd" clip-rule="evenodd" d="M52.1463 329.116C51.7551 329.116 51.4412 329.434 51.4412 329.826C51.4412 330.217 51.7599 330.531 52.1463 330.531C52.5326 330.531 52.8562 330.212 52.8562 329.826C52.8562 329.439 52.5374 329.116 52.1463 329.116ZM52.1463 325.011C51.7551 325.011 51.4412 325.33 51.4412 325.716C51.4412 326.102 51.7599 326.426 52.1463 326.426C52.5326 326.426 52.8562 326.107 52.8562 325.716C52.8562 325.325 52.5374 325.011 52.1463 325.011ZM54.8796 314.097C57.3329 318.284 54.6575 321.263 52.2429 322.611C48.8431 320.404 45.7862 318.25 45.7862 314.097C45.7862 314.097 44.6127 314.073 43.8497 315.937C42.5941 318.95 44.6996 325.726 44.6996 325.726C44.6996 325.726 47.0611 322.669 49.0266 322.505C50.9921 322.34 52.267 322.934 52.267 322.934C54.7782 321.09 56.4926 323.48 58.1731 325.233C58.7044 320.766 58.6368 317.555 55.2949 314.097H54.8796Z" fill="white"/>
<path fill-rule="evenodd" clip-rule="evenodd" d="M57.39 331.96H90.4847C91.7596 331.96 93.0877 333.037 92.8028 334.283L87.8576 356.155C87.5775 357.401 86.8145 358.473 85.5396 358.473H52.4449C51.17 358.473 49.8419 357.401 50.1269 356.155L55.072 334.283C55.3521 333.037 56.1151 331.96 57.39 331.96Z" fill="#003D71"/>
<path fill-rule="evenodd" clip-rule="evenodd" d="M58.8734 331.96H91.9681C93.2431 331.96 94.5711 333.037 94.2862 334.283L89.341 356.155C89.0609 357.401 88.2979 358.473 87.023 358.473H53.9283C52.6534 358.473 51.3253 357.401 51.6103 356.155L56.5554 334.283C56.8355 333.037 57.5985 331.96 58.8783 331.96" fill="#7BA5BB"/>
<path fill-rule="evenodd" clip-rule="evenodd" d="M73.6461 343.048C74.6457 343.367 75.1431 344.603 74.7568 345.801C74.3705 347.003 73.2453 347.713 72.2456 347.394C71.246 347.071 70.7485 345.839 71.1349 344.642C71.5212 343.439 72.6464 342.729 73.6461 343.048Z" fill="#EDF4F7"/>
<path fill-rule="evenodd" clip-rule="evenodd" d="M34.4177 356.309H51.2234V358.477H33.3359V357.396C33.3359 356.802 33.8237 356.314 34.4177 356.314" fill="#003D71"/>
<path d="M123.663 153.931V156.418C121.282 156.418 119.123 157.388 117.558 158.953H117.554C115.989 160.522 115.018 162.681 115.018 165.062V408.774C115.067 409.059 115.091 409.358 115.091 409.662V421.721C115.091 423.223 114.477 424.594 113.487 425.579C112.497 426.569 111.131 427.183 109.629 427.183C108.127 427.183 106.76 426.569 105.77 425.579C104.78 424.59 104.167 423.223 104.167 421.721V409.662C104.167 408.16 104.78 406.789 105.77 405.804C106.05 405.519 106.364 405.268 106.702 405.055V409.122C106.669 409.3 106.649 409.479 106.649 409.662V421.721C106.649 422.542 106.987 423.286 107.523 423.822C108.064 424.363 108.808 424.701 109.624 424.701C110.44 424.701 111.184 424.367 111.725 423.822C112.266 423.286 112.599 422.537 112.599 421.721V419.528H112.526V165.062C112.526 162.005 113.777 159.223 115.796 157.205V157.2C117.814 155.186 120.596 153.931 123.653 153.931" fill="#7BA5BB"/>
<path d="M95.5659 356.14H86.0137V358.627H95.5659C97.9467 358.627 100.105 359.598 101.67 361.162H101.675C103.24 362.727 104.21 364.895 104.21 367.271V420.572H106.697V367.271C106.697 364.215 105.446 361.433 103.428 359.414V359.405C101.409 357.391 98.6276 356.14 95.5707 356.14" fill="#7BA5BB"/>
<path fill-rule="evenodd" clip-rule="evenodd" d="M99.6901 277.562H127.873C134.258 277.562 139.435 282.739 139.435 289.123V296.821C139.435 303.205 134.258 308.377 127.873 308.377H105.852L99.6901 314.047V308.377C93.3058 308.377 88.1289 303.205 88.1289 296.821V289.123C88.1289 282.739 93.3058 277.562 99.6901 277.562Z" fill="#F77F00"/>
<path fill-rule="evenodd" clip-rule="evenodd" d="M103.234 292.943C104.557 292.943 105.63 294.015 105.63 295.338C105.63 296.661 104.557 297.729 103.234 297.729C101.911 297.729 100.844 296.656 100.844 295.338C100.844 294.02 101.916 292.943 103.234 292.943Z" fill="white"/>
<path fill-rule="evenodd" clip-rule="evenodd" d="M114.115 292.943C115.438 292.943 116.506 294.015 116.506 295.338C116.506 296.661 115.433 297.729 114.115 297.729C112.797 297.729 111.725 296.656 111.725 295.338C111.725 294.02 112.797 292.943 114.115 292.943Z" fill="white"/>
<path fill-rule="evenodd" clip-rule="evenodd" d="M124.995 292.943C126.318 292.943 127.385 294.015 127.385 295.338C127.385 296.661 126.313 297.729 124.995 297.729C123.677 297.729 122.6 296.656 122.6 295.338C122.6 294.02 123.672 292.943 124.995 292.943Z" fill="white"/>
<path d="M124.367 149H122.001V160.354H124.367V149Z" fill="#7BA5BB"/>
<path fill-rule="evenodd" clip-rule="evenodd" d="M-53.2472 436.228H464.354C465.035 436.228 465.596 436.851 465.596 437.614C465.596 438.377 465.035 439 464.354 439H-53.2472C-53.9329 439 -54.4883 438.377 -54.4883 437.614C-54.4883 436.851 -53.9281 436.228 -53.2472 436.228Z" fill="#003D71"/>
<path d="M372.994 231.915H87.6773C79.8485 231.915 73.502 238.261 73.502 246.09V246.092C73.502 253.92 79.8485 260.267 87.6773 260.267H372.994C380.823 260.267 387.169 253.92 387.169 246.092V246.09C387.169 238.261 380.823 231.915 372.994 231.915Z" fill="white"/>
<path d="M87.6773 231.915H177.102V260.267H87.6773C79.8527 260.267 73.502 253.915 73.502 246.092C73.502 238.267 79.8542 231.916 87.6773 231.916V231.915Z" fill="url(#paint0_linear_1042_856)"/>
<path d="M373.205 261.219H87.6773C79.335 261.219 72.5488 254.432 72.5488 246.092C72.5488 237.751 79.335 230.963 87.6773 230.963H373.204C381.546 230.963 388.332 237.749 388.332 246.092C388.332 254.434 381.546 261.219 373.204 261.219H373.205ZM87.6788 232.866C80.3871 232.866 74.4551 238.798 74.4551 246.09C74.4551 253.382 80.3871 259.314 87.6788 259.314H373.205C380.497 259.314 386.429 253.382 386.429 246.09C386.429 238.798 380.497 232.866 373.205 232.866H87.6773H87.6788Z" fill="#003D71"/>
<path d="M224.2 251.346H217.356V249.988L220.586 246.545C221.029 246.061 221.358 245.638 221.569 245.277C221.782 244.916 221.887 244.574 221.887 244.248C221.887 243.805 221.775 243.456 221.551 243.202C221.327 242.947 221.007 242.821 220.59 242.821C220.143 242.821 219.789 242.975 219.531 243.284C219.272 243.593 219.144 243.998 219.144 244.502H217.155C217.155 243.894 217.3 243.339 217.591 242.836C217.882 242.334 218.291 241.939 218.823 241.653C219.352 241.367 219.954 241.224 220.627 241.224C221.656 241.224 222.454 241.471 223.023 241.965C223.593 242.459 223.878 243.156 223.878 244.057C223.878 244.551 223.75 245.055 223.494 245.566C223.238 246.078 222.798 246.675 222.177 247.355L219.907 249.749H224.199V251.346H224.2Z" fill="#003D71"/>
<path d="M231.923 244.016C231.923 244.5 231.801 244.931 231.559 245.306C231.317 245.68 230.984 245.98 230.557 246.204C231.042 246.437 231.425 246.758 231.71 247.168C231.993 247.578 232.135 248.059 232.135 248.611C232.135 249.498 231.833 250.198 231.229 250.713C230.626 251.227 229.805 251.485 228.767 251.485C227.728 251.485 226.906 251.226 226.299 250.71C225.691 250.193 225.387 249.493 225.387 248.611C225.387 248.059 225.528 247.576 225.812 247.165C226.095 246.754 226.477 246.434 226.956 246.204C226.532 245.98 226.198 245.68 225.959 245.306C225.72 244.931 225.598 244.5 225.598 244.016C225.598 243.165 225.882 242.488 226.449 241.984C227.016 241.478 227.786 241.225 228.761 241.225C229.735 241.225 230.5 241.477 231.069 241.976C231.638 242.477 231.923 243.156 231.923 244.016ZM230.146 248.467C230.146 248.033 230.02 247.686 229.769 247.425C229.517 247.165 229.179 247.034 228.753 247.034C228.327 247.034 227.996 247.163 227.745 247.422C227.494 247.681 227.368 248.028 227.368 248.468C227.368 248.908 227.491 249.236 227.738 249.498C227.984 249.758 228.327 249.889 228.765 249.889C229.204 249.889 229.533 249.763 229.776 249.511C230.02 249.26 230.143 248.913 230.143 248.468L230.146 248.467ZM229.941 244.112C229.941 243.724 229.839 243.412 229.632 243.176C229.426 242.94 229.135 242.823 228.761 242.823C228.386 242.823 228.103 242.937 227.897 243.165C227.692 243.394 227.588 243.709 227.588 244.112C227.588 244.516 227.692 244.831 227.897 245.073C228.103 245.315 228.394 245.437 228.768 245.437C229.143 245.437 229.432 245.315 229.636 245.073C229.84 244.831 229.941 244.511 229.941 244.112Z" fill="#003D71"/>
<path d="M233.444 243.282C233.444 242.67 233.644 242.172 234.041 241.79C234.439 241.408 234.961 241.218 235.605 241.218C236.249 241.218 236.785 241.407 237.182 241.783C237.58 242.16 237.779 242.67 237.779 243.316V243.809C237.779 244.427 237.58 244.922 237.182 245.297C236.785 245.671 236.263 245.859 235.619 245.859C234.975 245.859 234.445 245.67 234.046 245.294C233.645 244.916 233.446 244.408 233.446 243.768V243.281L233.444 243.282ZM234.761 243.811C234.761 244.085 234.841 244.306 234.997 244.473C235.156 244.641 235.361 244.723 235.617 244.723C235.873 244.723 236.077 244.639 236.228 244.468C236.378 244.299 236.454 244.073 236.454 243.789V243.282C236.454 243.008 236.38 242.786 236.228 242.617C236.077 242.448 235.868 242.363 235.603 242.363C235.338 242.363 235.148 242.447 234.993 242.612C234.838 242.78 234.76 243.011 234.76 243.308V243.809L234.761 243.811ZM236.01 250.6L235.043 250.079L239.918 242.276L240.885 242.797L236.01 250.6ZM238.218 248.899C238.218 248.283 238.419 247.785 238.821 247.407C239.223 247.03 239.743 246.841 240.384 246.841C241.025 246.841 241.558 247.028 241.959 247.399C242.359 247.773 242.559 248.286 242.559 248.939V249.432C242.559 250.044 242.362 250.539 241.969 250.917C241.576 251.294 241.053 251.482 240.4 251.482C239.746 251.482 239.213 251.291 238.816 250.912C238.419 250.533 238.219 250.031 238.219 249.403V248.896L238.218 248.899ZM239.535 249.434C239.535 249.685 239.617 249.9 239.781 250.078C239.946 250.256 240.151 250.346 240.4 250.346C240.957 250.346 241.235 250.037 241.235 249.42V248.899C241.235 248.625 241.158 248.404 241.002 248.237C240.847 248.069 240.642 247.987 240.386 247.987C240.13 247.987 239.924 248.071 239.769 248.237C239.614 248.404 239.536 248.631 239.536 248.919V249.434H239.535Z" fill="#003D71"/>
</g>
<defs>
<linearGradient id="paint0_linear_1042_856" x1="73.502" y1="246.091" x2="177.102" y2="246.091" gradientUnits="userSpaceOnUse">
<stop stop-color="#F77F00"/>
<stop offset="1" stop-color="#F9423A"/>
</linearGradient>
<clipPath id="clip0_1042_856">
<rect width="408" height="446" fill="white"/>
</clipPath>
</defs>
</svg>
